<svg xmlns="http://www.w3.org/2000/svg" width="16" height="17" viewBox="0 0 16 17">
  <g id="Group_435" data-name="Group 435" transform="translate(-944.5 -321.5)">
    <path id="Union_24" data-name="Union 24" d="M11244.333,2590.328a2.758,2.758,0,0,1,.073-.632l-4.887-2.786a2.668,2.668,0,1,1,0-3.829l4.887-2.789a2.716,2.716,0,0,1-.076-.63,2.665,2.665,0,1,1,.706,1.807l-4.819,2.75a2.627,2.627,0,0,1,.115.777,2.656,2.656,0,0,1-.115.778l4.822,2.749a2.667,2.667,0,1,1-.706,1.807Z" transform="translate(-10289.999 -2254.999)" fill="#dd052b"/>
    <rect id="Rectangle_670" data-name="Rectangle 670" width="16" height="17" transform="translate(944.5 321.5)" fill="none"/>
  </g>
</svg>