<svg xmlns="http://www.w3.org/2000/svg" xmlns:xlink="http://www.w3.org/1999/xlink" width="30.115" height="30.121" viewBox="0 0 30.115 30.121">
  <defs>
    <linearGradient id="linear-gradient" x1="0.856" x2="0.168" y2="0.905" gradientUnits="objectBoundingBox">
      <stop offset="0" stop-color="#774adf"/>
      <stop offset="0.77" stop-color="#dc4363"/>
      <stop offset="1" stop-color="#eebf41"/>
    </linearGradient>
  </defs>
  <g id="instagram" transform="translate(0 0)">
    <path id="Path_53" data-name="Path 53" d="M1.894,2.053C-.465,4.5.018,7.108.018,15.017c0,6.569-1.146,13.154,4.852,14.7,1.873.482,18.469.482,20.339,0,2.5-.644,4.529-2.67,4.807-6.2.039-.493.039-16.5,0-17C29.72,2.755,27.4.586,24.352.147A27.014,27.014,0,0,0,19.924.01C7.2.016,4.406-.551,1.894,2.053Z" transform="translate(0.07 0.038)" fill="url(#linear-gradient)"/>
    <path id="Path_54" data-name="Path 54" d="M14.225,3.141c-4.543,0-8.857-.4-10.505,3.825-.681,1.747-.582,4.015-.582,7.263,0,2.85-.091,5.529.582,7.262,1.644,4.231,5.993,3.826,10.5,3.826,4.35,0,8.836.453,10.5-3.826.682-1.764.582-4,.582-7.262,0-4.332.239-7.128-1.862-9.227-2.127-2.127-5-1.86-9.226-1.86Zm-.993,2c9.477-.015,10.683-1.069,10.017,13.566-.236,5.176-4.178,4.608-9.022,4.608-8.833,0-9.087-.253-9.087-9.09,0-8.94.7-9.08,8.093-9.087Zm6.912,1.84a1.33,1.33,0,1,0,1.33,1.33A1.33,1.33,0,0,0,20.143,6.98ZM14.225,8.535a5.693,5.693,0,1,0,5.692,5.694,5.694,5.694,0,0,0-5.692-5.694Zm0,2c4.886,0,4.892,7.392,0,7.392S9.333,10.533,14.225,10.533Z" transform="translate(0.875 0.834)" fill="#fff"/>
  </g>
</svg>