<svg xmlns="http://www.w3.org/2000/svg" width="30.12" height="30.121" viewBox="0 0 30.12 30.121">
  <g id="Linkedin" transform="translate(-95.4 -395.1)">
    <path id="Path_6031" data-name="Path 6031" d="M125.521,410.168A15.06,15.06,0,1,1,110.452,395.1a15.059,15.059,0,0,1,15.069,15.069Z" transform="translate(0 0)" fill="#004c97"/>
    <path id="Path_6032" data-name="Path 6032" d="M147.255,446.331h3.2v10.334h-3.2Zm1.6-5.131A1.856,1.856,0,1,1,147,443.056,1.841,1.841,0,0,1,148.856,441.2Z" transform="translate(-44.522 -38.491)" fill="#fff"/>
    <path id="Path_6033" data-name="Path 6033" d="M177.1,468.255h3.075v1.419h.055A3.349,3.349,0,0,1,183.268,468c3.239,0,3.839,2.129,3.839,4.912v5.677h-3.2v-5.022c0-1.2-.018-2.747-1.674-2.747-1.674,0-1.929,1.31-1.929,2.656v5.113h-3.2Z" transform="translate(-69.146 -60.415)" fill="#fff"/>
  </g>
</svg>