<svg xmlns="http://www.w3.org/2000/svg" width="15" height="15" viewBox="0 0 15 15">
  <g id="Group_4" data-name="Group 4" transform="translate(-485 -1642)">
    <rect id="Rectangle_21" data-name="Rectangle 21" width="15" height="15" rx="5" transform="translate(485 1642)" fill="#fff"/>
    <g id="right-arrow_1_" data-name="right-arrow (1)" transform="translate(389.298 1646.223)">
      <g id="Group_3" data-name="Group 3" transform="translate(101.478)">
        <path id="Path_34" data-name="Path 34" d="M105.223,3.021,102.307.1a.359.359,0,0,0-.507,0l-.215.215a.359.359,0,0,0,0,.507l2.449,2.449-2.452,2.452a.359.359,0,0,0,0,.507l.215.215a.359.359,0,0,0,.507,0l2.919-2.919a.362.362,0,0,0,0-.509Z" transform="translate(-101.478)" fill="#100101" stroke="#100101" stroke-width="0.5"/>
      </g>
    </g>
  </g>
</svg>