<svg xmlns="http://www.w3.org/2000/svg" width="12.398" height="12.385" viewBox="0 0 12.398 12.385">
  <g id="pencil" transform="translate(0 -0.247)">
    <path id="Path_5964" data-name="Path 5964" d="M7.656,82.473.835,89.295a.272.272,0,0,0-.071.125L.008,92.454a.269.269,0,0,0,.26.334.267.267,0,0,0,.065-.008l3.035-.756a.268.268,0,0,0,.125-.071l6.822-6.822Zm0,0" transform="translate(0 -80.156)" fill="#004C97"/>
    <path id="Path_5965" data-name="Path 5965" d="M337.917,1.386l-.759-.759a1.375,1.375,0,0,0-1.9,0l-.93.93,2.658,2.658.93-.93a1.343,1.343,0,0,0,0-1.9Zm0,0" transform="translate(-325.912 0)" fill="#004C97"/>
  </g>
</svg>