<svg xmlns="http://www.w3.org/2000/svg" width="37.44" height="38.991" viewBox="0 0 37.44 38.991">
  <g id="register" transform="translate(0.35 -0.174)">
    <path id="Path_5940" data-name="Path 5940" d="M12.185,31.314a.8.8,0,0,1-.559-.231.789.789,0,0,1-.217-.713l1.117-5.586a.775.775,0,0,1,.217-.4L25.034,12.088a2.375,2.375,0,0,1,3.352,0l2.235,2.235a2.372,2.372,0,0,1,0,3.352L18.329,29.966a.786.786,0,0,1-.4.217L12.338,31.3A.838.838,0,0,1,12.185,31.314Zm1.846-5.988-.838,4.189,4.189-.838L29.5,16.556a.791.791,0,0,0,0-1.117L27.27,13.2a.791.791,0,0,0-1.117,0Zm3.741,4.08h.016Z" transform="translate(5.26 7.5)" fill="#004C97" stroke="#004C97" stroke-width="0.7"/>
    <path id="Union_1" data-name="Union 1" d="M3.951,32.951A3.954,3.954,0,0,1,0,29V3.951A3.954,3.954,0,0,1,3.951,0H22.914a3.954,3.954,0,0,1,3.951,3.951V17.938a.79.79,0,1,1-1.58,0V3.951a2.373,2.373,0,0,0-2.371-2.37H3.951A2.373,2.373,0,0,0,1.58,3.951V29A2.373,2.373,0,0,0,3.951,31.37H15.013a.79.79,0,0,1,0,1.58Z" transform="translate(0 0.524)" fill="#004C97" stroke="#004C97" stroke-width="0.7"/>
    <path id="Path_5944" data-name="Path 5944" d="M19.593,9.58H3.79A.79.79,0,1,1,3.79,8h15.8a.79.79,0,0,1,0,1.58Z" transform="translate(1.741 4.931)" fill="#004C97" stroke="#004C97" stroke-width="0.7"/>
    <path id="Path_5945" data-name="Path 5945" d="M19.593,12.58H3.79a.79.79,0,1,1,0-1.58h15.8a.79.79,0,1,1,0,1.58Z" transform="translate(1.741 6.672)" fill="#004C97" stroke="#004C97" stroke-width="0.7"/>
    <path id="Path_5946" data-name="Path 5946" d="M19.593,15.58H3.79a.79.79,0,1,1,0-1.58h15.8a.79.79,0,1,1,0,1.58Z" transform="translate(1.741 8.412)" fill="#004C97" stroke="#004C97" stroke-width="0.7"/>
    <path id="Path_5947" data-name="Path 5947" d="M19.593,9.58H3.79A.79.79,0,1,1,3.79,8h15.8a.79.79,0,0,1,0,1.58Z" transform="translate(1.741 0.425)" fill="#004C97" stroke="#004C97" stroke-width="0.7"/>
  </g>
</svg>