<svg xmlns="http://www.w3.org/2000/svg" width="14.082" height="14.054" viewBox="0 0 14.082 14.054">
  <g id="hide" transform="translate(0 -0.516)" opacity="0.496">
    <g id="Group_286" data-name="Group 286" transform="translate(3.907 6.819)">
      <g id="Group_285" data-name="Group 285">
        <path id="Path_5952" data-name="Path 5952" d="M144.887,232.406a2.039,2.039,0,0,1-1.693-1.693l-1.041-1.041a3.137,3.137,0,0,0,3.774,3.774Z" transform="translate(-142.07 -229.673)" fill="#4c565c"/>
      </g>
    </g>
    <g id="Group_288" data-name="Group 288" transform="translate(0.014 0.516)">
      <g id="Group_287" data-name="Group 287" transform="translate(0 0)">
        <path id="Path_5953" data-name="Path 5953" d="M14.145,8.177c.075-.1.214-.3.23-.326l.209-.308-.209-.308c-.016-.023-.155-.228-.23-.326a15.024,15.024,0,0,0-2.3-2.464,6.772,6.772,0,0,0-4.3-1.767A6.09,6.09,0,0,0,4.4,3.621L1.293.516l-.777.777L13.792,14.57l.777-.777L11.607,10.83A14.667,14.667,0,0,0,14.145,8.177Zm-4.829.362L8.582,7.8a1.072,1.072,0,0,0-1.3-1.3l-.734-.734a2.034,2.034,0,0,1,2.77,2.77Zm.8.8A3.134,3.134,0,0,0,5.75,4.973L5.2,4.426a4.874,4.874,0,0,1,2.339-.649c1.86,0,3.779,1.267,5.7,3.766a13.1,13.1,0,0,1-2.422,2.5Z" transform="translate(-0.516 -0.516)" fill="#4c565c"/>
      </g>
    </g>
    <g id="Group_290" data-name="Group 290" transform="translate(0 4.983)">
      <g id="Group_289" data-name="Group 289">
        <path id="Path_5954" data-name="Path 5954" d="M8.278,169.078a4.355,4.355,0,0,1-1.237.185c-1.86,0-3.779-1.267-5.7-3.766a15.016,15.016,0,0,1,1.577-1.782l-.778-.778a16.207,16.207,0,0,0-1.7,1.925c-.075.1-.214.3-.23.326L0,165.5l.209.308c.016.023.155.228.23.326a15.025,15.025,0,0,0,2.3,2.464,6.772,6.772,0,0,0,4.3,1.767,5.629,5.629,0,0,0,2.1-.421Z" transform="translate(0 -162.938)" fill="#4c565c"/>
      </g>
    </g>
  </g>
</svg>