<svg xmlns="http://www.w3.org/2000/svg" width="14.082" height="14.082" viewBox="0 0 14.082 9.732">
  <g id="Group_6826" data-name="Group 6826" transform="translate(-974.872 -535.049)" opacity="0.5">
    <path id="Path_6050" data-name="Path 6050" d="M988.745,539.607c-.016-.024-.155-.229-.23-.326a15,15,0,0,0-2.3-2.464,6.777,6.777,0,0,0-4.3-1.768,6.1,6.1,0,0,0-2.55.621c-.055.027-.1.038-.159.071-.125.068-.242.139-.36.21-.025.015-.052.026-.076.041l0,0a10.6,10.6,0,0,0-1.993,1.588v.015a16.032,16.032,0,0,0-1.466,1.681c-.075.1-.214.3-.23.325l-.21.313.209.307c.016.023.155.229.23.326a15.007,15.007,0,0,0,2.3,2.465,6.775,6.775,0,0,0,4.3,1.766,5.613,5.613,0,0,0,1.1-.12v0a7,7,0,0,0,2.953-1.469l.007.006c.037-.03.069-.067.106-.1.1-.082.2-.153.3-.244a4.536,4.536,0,0,0,.407-.408,14.6,14.6,0,0,0,1.725-1.9c.075-.1.214-.3.23-.327l.209-.308Zm-1.318.546c-.013.02-.125.175-.186.252a11.387,11.387,0,0,1-1.391,1.473,3.694,3.694,0,0,1-.329.316c-.082.07-.161.125-.242.189-.03.024-.056.052-.086.076l-.005-.005a5.784,5.784,0,0,1-2.384,1.137v0a4.6,4.6,0,0,1-.892.093,5.589,5.589,0,0,1-3.471-1.367,11.868,11.868,0,0,1-1.856-1.907c-.061-.076-.173-.235-.186-.252l-.168-.239.169-.241c.013-.02.125-.175.186-.253a12.847,12.847,0,0,1,1.183-1.3v-.012a8.481,8.481,0,0,1,1.609-1.229l0,0c.02-.012.041-.02.061-.032.1-.055.19-.11.291-.162.05-.026.084-.035.128-.055a5.089,5.089,0,0,1,2.058-.481,5.594,5.594,0,0,1,3.471,1.368,11.868,11.868,0,0,1,1.856,1.907c.061.076.173.235.186.252l.169.239Z" fill="#4c565c"/>
    <path id="Path_6051" data-name="Path 6051" d="M981.913,536.764a3.142,3.142,0,1,0,3.142,3.142A3.142,3.142,0,0,0,981.913,536.764Zm0,5.172a2.029,2.029,0,1,1,2.03-2.03A2.03,2.03,0,0,1,981.913,541.936Z" fill="#4c565c"/>
    <path id="Path_6052" data-name="Path 6052" d="M981.913,538.813a1.049,1.049,0,1,0,1.049,1.049A1.049,1.049,0,0,0,981.913,538.813Z" fill="#4c565c"/>
  </g>
</svg>
