<svg xmlns="http://www.w3.org/2000/svg" width="15.135" height="19.2" viewBox="0 0 15.135 19.2">
  <g id="map-locator" transform="translate(-48.742 0.1)">
    <path id="Path_219" data-name="Path 219" d="M56.316,19a1.731,1.731,0,0,1-1.05-.35,16.293,16.293,0,0,1-6.258-9.584A.557.557,0,0,1,49,8.988a7.557,7.557,0,0,1-.154-1.521A7.467,7.467,0,1,1,63.6,9.078a.527.527,0,0,1-.012.075,16.323,16.323,0,0,1-6.126,9.415l-.231.169a.55.55,0,0,1-.052.033A1.75,1.75,0,0,1,56.316,19Zm-6.2-10.107a15.181,15.181,0,0,0,5.819,8.861.634.634,0,0,0,.671.059l.193-.141a15.2,15.2,0,0,0,5.686-8.693A.546.546,0,0,1,62.5,8.9,6.35,6.35,0,1,0,49.96,7.467,6.422,6.422,0,0,0,50.1,8.825.575.575,0,0,1,50.115,8.893Z" fill="#dd052b" stroke="#dd052b" stroke-width="0.2"/>
    <path id="Path_220" data-name="Path 220" d="M154.677,109.014a3.2,3.2,0,1,1,3.2-3.2A3.2,3.2,0,0,1,154.677,109.014Zm0-5.273a2.078,2.078,0,1,0,2.079,2.078A2.08,2.08,0,0,0,154.677,103.741Z" transform="translate(-98.369 -98.352)" fill="#dd052b" stroke="#dd052b" stroke-width="0.2"/>
  </g>
</svg>