<svg xmlns="http://www.w3.org/2000/svg" width="63.163" height="71.865" viewBox="0 0 63.163 71.865">
  <g id="bill" transform="translate(-29.425 0.7)">
    <path id="Path_5978" data-name="Path 5978" d="M91.888,6.169A6.176,6.176,0,0,0,85.719,0H36.294a6.176,6.176,0,0,0-6.169,6.169V70l8.1-4.3,6.309,4.291,6.178-4.2,6.178,4.2,6.178-4.2,6.178,4.2L75.553,65.7l8.1,4.3V20.576h8.237ZM79.549,63.178l-4.257-2.261L69.244,65.03l-6.178-4.2-6.178,4.2-6.178-4.2-6.178,4.2-6.048-4.113-4.258,2.261V6.169A2.07,2.07,0,0,1,36.294,4.1H79.907a6.138,6.138,0,0,0-.358,2.068Zm8.237-46.7H83.651V6.169a2.068,2.068,0,0,1,4.136,0Z" transform="translate(0 0)" fill="#21bf73" stroke="#fff" stroke-width="1.4"/>
    <path id="Path_5979" data-name="Path 5979" d="M119.583,119.494a7.789,7.789,0,0,0-7.78-7.781h-2.887a2.732,2.732,0,1,1,0-5.463h2.821a2.738,2.738,0,0,1,2.735,2.735h5.049a7.8,7.8,0,0,0-6.637-7.7V97.678h-5.049v3.6a7.78,7.78,0,0,0,1.081,15.484H111.8a2.732,2.732,0,0,1,0,5.464h-2.938a2.642,2.642,0,0,1-2.639-2.639h-5.049a7.7,7.7,0,0,0,6.658,7.617V130.8h5.049v-3.6a7.791,7.791,0,0,0,6.7-7.7Z" transform="translate(-52.993 -79.237)" fill="#21bf73" stroke="#fff" stroke-width="1"/>
  </g>
</svg>