<svg xmlns="http://www.w3.org/2000/svg" width="114.081" height="91" viewBox="0 0 114.081 91">
  <g id="Group_386" data-name="Group 386" transform="translate(-347.927 -200)">
    <circle id="Ellipse_205" data-name="Ellipse 205" cx="3.5" cy="3.5" r="3.5" transform="translate(384 200)" fill="#d251ff"/>
    <circle id="Ellipse_206" data-name="Ellipse 206" cx="2" cy="2" r="2" transform="translate(396 205)" fill="#ffbf4a"/>
    <circle id="Ellipse_210" data-name="Ellipse 210" cx="2" cy="2" r="2" transform="translate(372 221)" fill="#ffbf4a"/>
    <path id="Path_5980" data-name="Path 5980" d="M6574.941,4227.711s6.426.065,7.584-5.684,5.121-4.14,5.121-4.14" transform="translate(-6126.941 -4010.711)" fill="none" stroke="#ff3b83" stroke-linecap="round" stroke-width="2"/>
    <circle id="Ellipse_207" data-name="Ellipse 207" cx="1.5" cy="1.5" r="1.5" transform="translate(458 240)" fill="#40d5ff"/>
    <path id="Path_5981" data-name="Path 5981" d="M6145.738,4468.257s13.923,5.319,16.8-5.594-6.7-8.281-5.514-4.314,8.374,7.977,15.839,0" transform="translate(-5796.521 -4200.548)" fill="none" stroke="#40d5ff" stroke-linecap="round" stroke-width="2"/>
    <path id="Path_5982" data-name="Path 5982" d="M6556.328,4561.609s7.2,2.563,9.016,12.246" transform="translate(-6112.836 -4287.855)" fill="none" stroke="#ffbf4a" stroke-linecap="round" stroke-width="2"/>
    <circle id="Ellipse_208" data-name="Ellipse 208" cx="3" cy="3" r="3" transform="translate(394 285)" fill="#21bf73"/>
    <circle id="Ellipse_211" data-name="Ellipse 211" cx="1.5" cy="1.5" r="1.5" transform="translate(388 276)" fill="#21bf73"/>
  </g>
</svg>