<svg xmlns="http://www.w3.org/2000/svg" width="73.75px" height="74.125px" viewBox="4.033 4.033 73.75 74.125">
<path fill="none" stroke="#21BF73" stroke-width="3" d="M75.853,41.103c0,19.191-15.56,34.75-34.75,34.75l0,0
	c-19.192,0-34.75-15.559-34.75-34.75l0,0c0-19.192,15.558-34.75,34.75-34.75l0,0C60.293,6.353,75.853,21.911,75.853,41.103
	L75.853,41.103z"/>
<path fill="#21BF73" d="M25.288,42.091c-0.537,0-1.037,0.214-1.409,0.602c-0.362,0.377-0.555,0.871-0.543,1.392
	c0.011,0.521,0.224,1.008,0.601,1.369L34.199,55.3c0.444,0.437,0.928,0.53,1.35,0.539c0.635,0.014,1.141-0.282,1.487-0.689
	L57.57,31.049c0.338-0.397,0.501-0.902,0.459-1.421c-0.041-0.52-0.283-0.993-0.681-1.331c-0.452-0.386-0.938-0.467-1.265-0.467
	c-0.573,0-1.116,0.25-1.487,0.687L35.407,51.043l-8.769-8.408C26.274,42.284,25.794,42.091,25.288,42.091z"/>
</svg>
