<svg xmlns="http://www.w3.org/2000/svg" width="26.24" height="18.479" viewBox="0 0 26.24 18.479">
  <g id="delivery-truck" transform="translate(0.15 0.15)">
    <g id="Group_195" data-name="Group 195" transform="translate(0 0)">
      <path id="Path_221" data-name="Path 221" d="M25.059,75.106l-1.766-.764-1.5-2.919a2.362,2.362,0,0,0-2.125-1.291H17.085V69.4A2.383,2.383,0,0,0,14.71,67H2.363A2.377,2.377,0,0,0,0,69.4V80.579a1.456,1.456,0,0,0,1.436,1.477h.33c0,.058-.006.081-.006.116a3,3,0,0,0,6,.023v-.029a.9.9,0,0,0-.006-.116h9.978v.116a3,3,0,1,0,6,.023v-.145h.747a1.461,1.461,0,0,0,1.459-1.459V76.45A1.452,1.452,0,0,0,25.059,75.106ZM4.767,84.03a1.842,1.842,0,1,1,1.842-1.842A1.839,1.839,0,0,1,4.767,84.03Zm11.16-3.121H7.483a3,3,0,0,0-5.432,0H1.46a.3.3,0,0,1-.3-.319V77.608H15.926Zm0-11.5V76.45H1.159V69.407a1.219,1.219,0,0,1,1.2-1.239H14.71A1.227,1.227,0,0,1,15.926,69.4ZM17.085,71.3h2.583a1.222,1.222,0,0,1,1.1.654l1.158,2.241H17.085ZM20.739,84.03a1.842,1.842,0,1,1,1.842-1.842A1.839,1.839,0,0,1,20.739,84.03Zm4.048-3.44a.3.3,0,0,1-.3.319H23.455a3,3,0,0,0-5.432,0h-.938v-5.56H22.76l1.842.811a.341.341,0,0,1,.185.313Z" transform="translate(0 -67.004)" fill="#dd052b" stroke="#dd052b" stroke-width="0.3"/>
    </g>
  </g>
</svg>