<svg xmlns="http://www.w3.org/2000/svg" width="23.2" height="19.367" viewBox="0 0 23.2 19.367">
  <g id="user_1_" data-name="user (1)" transform="translate(0.1 0.1)">
    <g id="Group_214" data-name="Group 214" transform="translate(3.833 0)">
      <g id="Group_213" data-name="Group 213" transform="translate(0 0)">
        <path id="Path_234" data-name="Path 234" d="M175.138,85.333a4.472,4.472,0,1,0,4.472,4.472A4.477,4.477,0,0,0,175.138,85.333Zm0,7.667a3.194,3.194,0,1,1,3.194-3.194A3.2,3.2,0,0,1,175.138,93Z" transform="translate(-170.666 -85.333)" fill="#dd052b" stroke="#dd052b" stroke-width="0.2"/>
      </g>
    </g>
    <g id="Group_216" data-name="Group 216" transform="translate(14.056 5.111)">
      <g id="Group_215" data-name="Group 215" transform="translate(0 0)">
        <path id="Path_235" data-name="Path 235" d="M344.528,170.667a3.194,3.194,0,1,0,3.194,3.194A3.2,3.2,0,0,0,344.528,170.667Zm0,5.111a1.917,1.917,0,1,1,1.917-1.917A1.919,1.919,0,0,1,344.528,175.778Z" transform="translate(-341.334 -170.667)" fill="#dd052b" stroke="#dd052b" stroke-width="0.2"/>
      </g>
    </g>
    <g id="Group_220" data-name="Group 220" transform="translate(0 10.222)">
      <g id="Group_219" data-name="Group 219">
        <path id="Path_237" data-name="Path 237" d="M114.972,256a8.315,8.315,0,0,0-8.306,8.306.639.639,0,1,0,1.278,0,7.028,7.028,0,0,1,14.055,0,.639.639,0,1,0,1.278,0A8.315,8.315,0,0,0,114.972,256Z" transform="translate(-106.666 -256)" fill="#dd052b" stroke="#dd052b" stroke-width="0.2"/>
      </g>
    </g>
    <g id="Group_222" data-name="Group 222" transform="translate(13.964 12.778)">
      <g id="Group_221" data-name="Group 221">
        <path id="Path_238" data-name="Path 238" d="M343.1,298.667a5.75,5.75,0,0,0-2.978.831.639.639,0,0,0,.663,1.093,4.473,4.473,0,0,1,6.788,3.827.639.639,0,1,0,1.278,0A5.757,5.757,0,0,0,343.1,298.667Z" transform="translate(-339.813 -298.667)" fill="#dd052b" stroke="#dd052b" stroke-width="0.2"/>
      </g>
    </g>
  </g>
</svg>