<svg xmlns="http://www.w3.org/2000/svg" width="24.349" height="22.582" viewBox="0 0 24.349 22.582">
  <g id="harvest" transform="translate(0.25 0.252)">
    <g id="Group_208" data-name="Group 208" transform="translate(0 0)">
      <g id="Group_207" data-name="Group 207" transform="translate(0 0)">
        <path id="Path_233" data-name="Path 233" d="M23.664,27.938a.465.465,0,0,0-.157-.271,2.932,2.932,0,0,1-1-1.947l-.014-.075a.465.465,0,0,0-.393-.377,1.553,1.553,0,0,0-.215-.015,2.137,2.137,0,0,0-1.461.6.465.465,0,0,0-.124.259c-.033.25-.05.479-.065.68-.057.76-.107.841-.339.914a.465.465,0,0,0-.3.305,10.743,10.743,0,0,1-.858,2.008c-.173-.33-.364-.628-.542-.9a2.629,2.629,0,0,1-.662-1.873c.381-2.146.187-3.762-.574-4.8a3.059,3.059,0,0,0-1.763-1.161,2.049,2.049,0,0,1,1.378-1.776.465.465,0,0,0-.241-.9,2.977,2.977,0,0,0-2.059,2.558,3.085,3.085,0,0,0-1.971.668c-1.014.81-1.626,2.315-1.82,4.473-.058.649-.479,1.028-1.06,1.553a6.737,6.737,0,0,0-1.427,1.628,5.76,5.76,0,0,0-1.684-.4,2.04,2.04,0,0,1,1.368-1.711.465.465,0,0,0-.241-.9,2.483,2.483,0,0,0-.7.316,2.75,2.75,0,0,0-3.4-2.111A.465.465,0,0,0,3,25.007a2.76,2.76,0,0,0,.712,2.656,2.729,2.729,0,0,0,1.784.8,3.485,3.485,0,0,0-.128.614,5.806,5.806,0,0,0,.439,11.595A5.751,5.751,0,0,0,9.1,39.648c.153.067.306.132.46.192a11.44,11.44,0,0,0,4.2.832,9.363,9.363,0,0,0,6-2.112,11.791,11.791,0,0,0,3.765-6.181A12.073,12.073,0,0,0,23.664,27.938Zm-13.626.611A3.274,3.274,0,0,0,11.4,26.39c.171-1.9.667-3.184,1.474-3.83a2.24,2.24,0,0,1,1.762-.439,2.208,2.208,0,0,1,1.563.87c.606.83.744,2.207.409,4.093a3.439,3.439,0,0,0,.8,2.538,7.125,7.125,0,0,1,.734,1.351,11.154,11.154,0,0,1-6.562,4.518,5.805,5.805,0,0,0-2.757-5.585A6.04,6.04,0,0,1,10.038,28.55Zm-5.67-1.545a1.827,1.827,0,0,1-.522-1.48,1.843,1.843,0,0,1,.194-.01,1.807,1.807,0,0,1,1.286.533,1.827,1.827,0,0,1,.522,1.48,1.842,1.842,0,0,1-.194.01h0A1.807,1.807,0,0,1,4.368,27.005ZM5.806,39.742a4.871,4.871,0,1,1,4.81-4.077c-.3.039-.9.073-.9.073l-.955-.015A19.091,19.091,0,0,1,6.769,35.4a.465.465,0,0,0-.39.07A2.668,2.668,0,0,0,5.3,36.836a.465.465,0,0,0,.14.509,15.716,15.716,0,0,0,2.666,1.82A4.832,4.832,0,0,1,5.806,39.742Zm16.824-7.6c-1.276,4.762-4.591,7.6-8.867,7.6a12.134,12.134,0,0,1-7.454-2.889,1.656,1.656,0,0,1,.439-.5,11.04,11.04,0,0,0,2.643.325,11.228,11.228,0,0,0,6.959-2.46,12.389,12.389,0,0,0,2.678-2.9c.009-.012.017-.024.024-.036A11.864,11.864,0,0,0,20.408,28.5c.652-.328.7-.992.75-1.637.011-.147.022-.3.04-.458a1.259,1.259,0,0,1,.452-.2,3.644,3.644,0,0,0,1.126,2.051A11.249,11.249,0,0,1,22.63,32.138Z" transform="translate(0 -18.592)" fill="#dd052b" stroke="#dd052b" stroke-width="0.5"/>
      </g>
    </g>
  </g>
</svg>