<svg xmlns="http://www.w3.org/2000/svg" width="19.342" height="25.765" viewBox="0 0 19.342 25.765">
  <g id="Group_356" data-name="Group 356" transform="translate(0.1 0.105)">
    <path id="Path_179" data-name="Path 179" d="M161.675,89.134a.879.879,0,0,0,.663,0c.209-.085,5.129-2.131,5.129-5.735a3.48,3.48,0,0,0-5.461-2.807,3.48,3.48,0,0,0-5.461,2.807C156.546,87,161.466,89.048,161.675,89.134Zm-.337-6.8a.879.879,0,0,0,1.336,0A1.725,1.725,0,0,1,165.71,83.4c0,1.836-2.427,3.359-3.7,3.961-1.278-.6-3.7-2.125-3.7-3.961A1.725,1.725,0,0,1,161.339,82.335Z" transform="translate(-152.436 -69.138)" fill="#dd052b" stroke="#fff" stroke-width="0.2"/>
    <g id="greeting-card" transform="translate(0 0)">
      <path id="Path_184" data-name="Path 184" d="M82.682,4.815H80.223V.751a.753.753,0,0,0-.986-.71L64.8,4.853a.749.749,0,0,0-.512.71V24.812a.749.749,0,0,0,.749.749H82.682a.749.749,0,0,0,.749-.749V5.563a.749.749,0,0,0-.749-.749ZM78.726,1.79V4.815H69.652Zm3.208,22.273H65.787V6.312H81.934Z" transform="translate(-64.289 0)" fill="#dd052b" stroke="#fff" stroke-width="0.2"/>
    </g>
  </g>
</svg>