<svg xmlns="http://www.w3.org/2000/svg" width="20.596" height="23.563" viewBox="0 0 20.596 23.563">
  <g id="exhibition" transform="translate(0.1 0.1)">
    <path id="Path_203" data-name="Path 203" d="M.6,253.568a.6.6,0,0,0,0,1.2h2.39a.6.6,0,0,0,0-1.2h-.6v-6.736a5.366,5.366,0,0,0,3.625,1.339A5.335,5.335,0,0,0,9.6,246.845v6.723H9a.6.6,0,0,0,0,1.2h2.39a.6.6,0,0,0,0-1.2h-.6v-6.723a5.544,5.544,0,0,0,7.21-.014v6.736h-.6a.6.6,0,0,0,0,1.2H19.8a.6.6,0,0,0,0-1.2h-.6v-9.085a1.793,1.793,0,1,0-1.2,0v.537a4.234,4.234,0,0,1-3.625,1.956,4.14,4.14,0,0,1-3.585-1.949v-.544a1.793,1.793,0,1,0-1.2,0v.544a4.14,4.14,0,0,1-3.585,1.949A4.235,4.235,0,0,1,2.39,245.02v-.537a1.793,1.793,0,1,0-1.2,0v9.085ZM18.6,242.2a.6.6,0,1,1-.6.6A.6.6,0,0,1,18.6,242.2Zm-8.405,0a.6.6,0,1,1-.6.6A.6.6,0,0,1,10.2,242.2Zm-8.405,0a.6.6,0,1,1-.6.6A.6.6,0,0,1,1.793,242.2Z" transform="translate(0 -231.4)" fill="#dd052b" stroke="#dd052b" stroke-width="0.2"/>
    <path id="Path_205" data-name="Path 205" d="M271.6,8.405H282.97a.6.6,0,0,0,.6-.6V.6a.6.6,0,0,0-.6-.6H271.6a.6.6,0,0,0-.6.6v7.21A.6.6,0,0,0,271.6,8.405Zm.6-7.21h10.177V7.21H272.2Z" transform="translate(-267.086 0)" fill="#dd052b" stroke="#dd052b" stroke-width="0.2"/>
  </g>
</svg>