<svg xmlns="http://www.w3.org/2000/svg" width="19.851" height="25.2" viewBox="0 0 19.851 25.2">
  <g id="map-locator" transform="translate(-48.742 0.1)">
    <path id="Path_219" data-name="Path 219" d="M58.676,25a2.277,2.277,0,0,1-1.381-.46,21.438,21.438,0,0,1-8.235-12.611.733.733,0,0,1-.015-.1,9.943,9.943,0,0,1-.2-2,9.826,9.826,0,1,1,19.421,2.12.694.694,0,0,1-.015.1,21.478,21.478,0,0,1-8.06,12.388l-.3.222a.723.723,0,0,1-.068.044A2.3,2.3,0,0,1,58.676,25Zm-8.16-13.3A19.974,19.974,0,0,0,58.174,23.36a.835.835,0,0,0,.883.077l.254-.186a20,20,0,0,0,7.482-11.439.719.719,0,0,1,.016-.1,8.356,8.356,0,1,0-16.5-1.887,8.45,8.45,0,0,0,.19,1.787A.757.757,0,0,1,50.516,11.7Z" fill="#dd052b" stroke="#dd052b" stroke-width="0.2"/>
    <path id="Path_220" data-name="Path 220" d="M155.687,111.032a4.2,4.2,0,1,1,4.206-4.2A4.209,4.209,0,0,1,155.687,111.032Zm0-6.939a2.734,2.734,0,1,0,2.735,2.735A2.737,2.737,0,0,0,155.687,104.094Z" transform="translate(-97.02 -97.004)" fill="#dd052b" stroke="#dd052b" stroke-width="0.2"/>
  </g>
</svg>