<svg xmlns="http://www.w3.org/2000/svg" width="17.403" height="17.433" viewBox="0 0 17.403 17.433">
  <path id="_13003354851543238910" data-name="13003354851543238910" d="M11.848,4.01A3.762,3.762,0,0,1,14.82,6.982M11.848,1A6.772,6.772,0,0,1,17.83,6.975m-.752,6v2.257a1.5,1.5,0,0,1-1.64,1.5,14.892,14.892,0,0,1-6.494-2.31A14.674,14.674,0,0,1,4.428,9.917a14.892,14.892,0,0,1-2.31-6.524,1.5,1.5,0,0,1,1.5-1.64H5.873a1.5,1.5,0,0,1,1.5,1.294A9.662,9.662,0,0,0,7.9,5.161a1.5,1.5,0,0,1-.339,1.588L6.61,7.7a12.04,12.04,0,0,0,4.515,4.515l.956-.956a1.5,1.5,0,0,1,1.588-.339,9.662,9.662,0,0,0,2.114.527,1.5,1.5,0,0,1,1.294,1.528Z" transform="translate(-1.311 -0.117)" fill="none" stroke="#004c97" stroke-linecap="round" stroke-linejoin="round" stroke-width="1.6"/>
</svg>