<svg version="1.1" id="Layer_1" xmlns="http://www.w3.org/2000/svg" xmlns:xlink="http://www.w3.org/1999/xlink" x="0px" y="0px"
	 width="46.5px" height="51.167px" viewBox="200.973 386.612 46.5 51.167"
	 style="enable-background:new 200.973 386.612 46.5 51.167;">
<g>
	<path style="fill:#DD052B;stroke:#DD052B;stroke-width:0.9502;stroke-miterlimit:10;" d="M231.078,422.468v8.169
		c0,0.125,0,0.251,0,0.375c-0.025,1.035-0.73,1.749-1.76,1.77c-0.534,0.011-1.069,0-1.662,0c0,0.477,0,0.918-0.013,1.356
		c0.008,0.233-0.006,0.465-0.042,0.694c-0.139,0.792-0.824,1.37-1.627,1.377c-1.163,0.023-2.326,0.023-3.489,0
		c-0.924-0.009-1.67-0.758-1.676-1.683c-0.02-0.554,0-1.108,0-1.699c-0.157-0.017-1.179-0.043-1.554-0.046
		c-1.168-0.009-1.878-0.707-1.879-1.86c0-2.236,0-4.474,0-6.709v-1.737c-3.478-1.93-5.868-4.762-7.065-8.549
		c-0.936-2.918-0.902-6.061,0.098-8.957c2.559-7.632,10.82-11.744,18.452-9.185c4.432,1.486,7.883,5.008,9.277,9.47
		c0.683,2.137,0.849,4.405,0.482,6.619c-0.715,4.516-3.504,8.436-7.536,10.59L231.078,422.468z M219.056,424.185h4.308v-3.984
		c-0.341-0.326-0.705-0.669-1.062-1.02c-0.358-0.351-0.739-0.729-1.101-1.101c-0.465-0.479-0.504-0.935-0.12-1.314
		c0.383-0.379,0.834-0.339,1.314,0.13c0.512,0.501,1.013,1.012,1.521,1.516c0.098,0.096,0.211,0.174,0.331,0.275
		c0.155-0.143,0.286-0.265,0.411-0.39c0.468-0.467,0.927-0.945,1.408-1.398c0.163-0.164,0.362-0.286,0.581-0.359
		c0.557-0.153,1.134,0.46,0.943,1.009c-0.095,0.23-0.237,0.438-0.418,0.608c-0.696,0.716-1.408,1.417-2.101,2.111
		c0,0.686,0,1.33,0,1.972s-0.024,1.31,0.02,1.953c1.056,0.086,3.881,0.054,4.304-0.051c0-0.544,0.041-1.101-0.012-1.648
		c-0.074-0.772,0.257-1.188,0.935-1.546c4.829-2.56,7.503-7.9,6.66-13.3c-0.381-2.641-1.601-5.088-3.481-6.982
		c-3.1-3.148-6.877-4.419-11.228-3.795c-3.402,0.488-6.194,2.157-8.277,4.898c-2.393,3.149-3.208,6.707-2.361,10.577
		c0.859,3.953,3.163,6.858,6.737,8.745c0.489,0.257,0.715,0.595,0.694,1.145c-0.024,0.635-0.005,1.278-0.005,1.958V424.185z
		 M219.082,427.579h10.275v-1.638h-10.275V427.579z M219.082,431.056h10.279v-1.623c-0.114-0.007-10.271-0.012-10.283,0
		L219.082,431.056z M222.517,434.49h3.41v-1.654h-3.414L222.517,434.49z"/>
	<path style="fill:#DD052B;stroke:#DD052B;stroke-width:0.8771;stroke-miterlimit:10;" d="M212.929,397.462
		c0,0.463-0.375,0.837-0.837,0.838c-0.125,0-0.248-0.028-0.361-0.082c-0.14-0.076-0.268-0.172-0.379-0.287
		c-0.723-0.719-1.442-1.44-2.157-2.164c-0.09-0.087-0.171-0.184-0.242-0.287c-0.251-0.381-0.146-0.895,0.236-1.146
		c0.268-0.176,0.613-0.182,0.886-0.015c0.104,0.067,0.201,0.147,0.286,0.238c0.734,0.732,1.467,1.464,2.198,2.197
		C212.769,396.935,212.901,397.188,212.929,397.462z"/>
	<path style="fill:#DD052B;stroke:#DD052B;stroke-width:0.8771;stroke-miterlimit:10;" d="M236.402,398.317
		c-0.46,0.017-0.847-0.343-0.864-0.804c-0.004-0.126,0.02-0.252,0.071-0.369c0.083-0.159,0.191-0.304,0.321-0.429
		c0.702-0.712,1.409-1.42,2.121-2.124c0.11-0.117,0.235-0.218,0.372-0.301c0.321-0.189,0.731-0.124,0.979,0.155
		c0.255,0.243,0.314,0.627,0.143,0.935c-0.076,0.141-0.173,0.269-0.287,0.381c-0.715,0.716-1.439,1.441-2.158,2.163
		C236.923,398.136,236.675,398.276,236.402,398.317z"/>
	<path style="fill:#DD052B;stroke:#DD052B;stroke-width:0.8771;stroke-miterlimit:10;" d="M212.094,420.93
		c0.495,0.073,0.753,0.349,0.812,0.814c-0.028,0.306-0.174,0.588-0.407,0.788c-0.698,0.689-1.388,1.388-2.085,2.079
		c-0.11,0.116-0.234,0.22-0.369,0.306c-0.316,0.196-0.727,0.143-0.982-0.128c-0.292-0.263-0.346-0.699-0.129-1.026
		c0.068-0.104,0.148-0.199,0.239-0.286c0.716-0.716,1.44-1.432,2.147-2.161C211.518,421.09,211.796,420.952,212.094,420.93z"/>
	<path style="fill:#DD052B;stroke:#DD052B;stroke-width:0.8771;stroke-miterlimit:10;" d="M235.543,421.705
		c0.014-0.062,0.032-0.122,0.053-0.183c0.247-0.603,0.832-0.763,1.346-0.363c0.123,0.104,0.239,0.215,0.348,0.333
		c0.621,0.618,1.241,1.238,1.861,1.86c0.118,0.109,0.225,0.229,0.318,0.361c0.266,0.37,0.18,0.886-0.191,1.152
		c-0.291,0.207-0.684,0.206-0.972-0.008c-0.114-0.086-0.221-0.182-0.319-0.286c-0.672-0.669-1.337-1.343-2.003-2.004
		C235.72,422.356,235.561,422.042,235.543,421.705z"/>
	<path style="fill:#DD052B;stroke:#DD052B;stroke-width:0.8771;stroke-miterlimit:10;" d="M225.067,390.717v1.393
		c0,0.106,0,0.215,0,0.321c-0.044,0.501-0.413,0.858-0.858,0.846c-0.45-0.021-0.807-0.389-0.812-0.84c-0.023-0.356,0-0.716,0-1.071
		c0-0.679,0-1.356,0-2.034c0-0.107,0-0.216,0-0.322c0.043-0.501,0.412-0.858,0.859-0.844c0.451,0.018,0.809,0.387,0.811,0.839
		c0.025,0.481,0,0.963,0.009,1.445L225.067,390.717z"/>
	<path style="fill:#DD052B;stroke:#DD052B;stroke-width:0.8771;stroke-miterlimit:10;" d="M205.33,408.77h1.444
		c0.125-0.006,0.25-0.002,0.375,0.013c0.426,0.061,0.741,0.428,0.737,0.858c-0.027,0.407-0.332,0.741-0.734,0.806
		c-0.018,0.001-0.035,0.001-0.053,0c-1.178,0-2.356,0.017-3.534-0.009c-0.455-0.019-0.809-0.403-0.789-0.858l0,0
		c0.02-0.447,0.388-0.8,0.835-0.802c0.573-0.022,1.145,0,1.718,0V408.77z"/>
	<path style="fill:#DD052B;stroke:#DD052B;stroke-width:0.8771;stroke-miterlimit:10;" d="M243.116,410.457h-1.446
		c-0.125,0.006-0.25,0.001-0.374-0.013c-0.459-0.054-0.787-0.469-0.732-0.927c0.045-0.385,0.348-0.688,0.732-0.732
		c0.088-0.011,0.177-0.015,0.266-0.011h3.105c0.053,0,0.108,0,0.161,0c0.484,0.043,0.825,0.375,0.842,0.814
		c0.005,0.469-0.37,0.853-0.839,0.858c-0.001,0-0.003,0-0.004,0c-0.572,0.023-1.145,0-1.718,0L243.116,410.457z"/>
</g>
</svg>