<svg xmlns="http://www.w3.org/2000/svg" width="47.725" height="33.536" viewBox="0 0 47.725 33.536">
  <g id="delivery-truck" transform="translate(0.15 0.15)">
    <g id="Group_195" data-name="Group 195" transform="translate(0 0)">
      <path id="Path_221" data-name="Path 221" d="M45.815,81.817l-3.229-1.4-2.742-5.336a4.318,4.318,0,0,0-3.886-2.361H31.235V71.387A4.356,4.356,0,0,0,26.894,67H4.321A4.345,4.345,0,0,0,0,71.387V91.822a2.662,2.662,0,0,0,2.626,2.7h.6c0,.106-.011.148-.011.212a5.485,5.485,0,1,0,10.969.042v-.053a1.647,1.647,0,0,0-.011-.212H32.421v.212a5.485,5.485,0,1,0,10.969.042V94.5h1.366a2.671,2.671,0,0,0,2.668-2.668v-7.56A2.655,2.655,0,0,0,45.815,81.817ZM8.715,98.133a3.367,3.367,0,1,1,3.367-3.367A3.362,3.362,0,0,1,8.715,98.133Zm20.4-5.707H13.68a5.477,5.477,0,0,0-9.932,0H2.669a.548.548,0,0,1-.551-.582V86.391h27Zm0-21.028V84.273h-27V71.4a2.228,2.228,0,0,1,2.2-2.266H26.894a2.244,2.244,0,0,1,2.223,2.255Zm2.118,3.452h4.722a2.235,2.235,0,0,1,2.012,1.2l2.118,4.1H31.235Zm6.681,23.283a3.367,3.367,0,1,1,3.367-3.367A3.362,3.362,0,0,1,37.916,98.133Zm7.4-6.289a.548.548,0,0,1-.551.582H42.882a5.48,5.48,0,0,0-9.932,0H31.235V82.261H41.611l3.367,1.482a.623.623,0,0,1,.339.572Z" transform="translate(0 -67.004)" fill="#dd052b" stroke="#dd052b" stroke-width="0.3"/>
    </g>
  </g>
</svg>