<svg xmlns="http://www.w3.org/2000/svg" width="46.079" height="38.465" viewBox="0 0 46.079 38.465">
  <g id="user_1_" data-name="user (1)" transform="translate(-13.2 -85.133)">
    <g id="Group_214" data-name="Group 214" transform="translate(21.013 85.333)">
      <g id="Group_213" data-name="Group 213" transform="translate(0 0)">
        <path id="Path_234" data-name="Path 234" d="M179.548,85.333a8.882,8.882,0,1,0,8.882,8.882A8.892,8.892,0,0,0,179.548,85.333Zm0,15.226a6.344,6.344,0,1,1,6.344-6.344A6.353,6.353,0,0,1,179.548,100.559Z" transform="translate(-170.666 -85.333)" fill="#dd052b" stroke="#dd052b" stroke-width="0.4"/>
      </g>
    </g>
    <g id="Group_216" data-name="Group 216" transform="translate(41.315 95.484)">
      <g id="Group_215" data-name="Group 215" transform="translate(0 0)">
        <path id="Path_235" data-name="Path 235" d="M347.678,170.667a6.344,6.344,0,1,0,6.344,6.344A6.353,6.353,0,0,0,347.678,170.667Zm0,10.151a3.807,3.807,0,1,1,3.807-3.807A3.811,3.811,0,0,1,347.678,180.818Z" transform="translate(-341.334 -170.667)" fill="#dd052b" stroke="#dd052b" stroke-width="0.4"/>
      </g>
    </g>
    <g id="Group_220" data-name="Group 220" transform="translate(13.4 105.635)">
      <g id="Group_219" data-name="Group 219">
        <path id="Path_237" data-name="Path 237" d="M123.161,256a16.514,16.514,0,0,0-16.5,16.5,1.269,1.269,0,1,0,2.538,0,13.957,13.957,0,0,1,27.915,0,1.269,1.269,0,1,0,2.538,0A16.514,16.514,0,0,0,123.161,256Z" transform="translate(-106.666 -256)" fill="#dd052b" stroke="#dd052b" stroke-width="0.4"/>
      </g>
    </g>
    <g id="Group_222" data-name="Group 222" transform="translate(41.134 110.71)">
      <g id="Group_221" data-name="Group 221">
        <path id="Path_238" data-name="Path 238" d="M346.338,298.667a11.42,11.42,0,0,0-5.915,1.65,1.269,1.269,0,1,0,1.317,2.17,8.884,8.884,0,0,1,13.48,7.6,1.269,1.269,0,1,0,2.538,0A11.434,11.434,0,0,0,346.338,298.667Z" transform="translate(-339.813 -298.667)" fill="#dd052b" stroke="#dd052b" stroke-width="0.4"/>
      </g>
    </g>
  </g>
</svg>