<svg xmlns="http://www.w3.org/2000/svg" width="41.994" height="38.958" viewBox="0 0 41.994 38.958">
  <g id="harvest" transform="translate(0.5 0.503)">
    <g id="Group_208" data-name="Group 208" transform="translate(0 0)">
      <g id="Group_207" data-name="Group 207" transform="translate(0 0)">
        <path id="Path_233" data-name="Path 233" d="M40.678,34.658a.8.8,0,0,0-.27-.467,5.039,5.039,0,0,1-1.727-3.347l-.023-.129a.8.8,0,0,0-.675-.647,2.67,2.67,0,0,0-.37-.025A3.673,3.673,0,0,0,35.1,31.079a.8.8,0,0,0-.213.445c-.057.43-.087.823-.112,1.17-.1,1.307-.184,1.446-.583,1.572a.8.8,0,0,0-.522.525A18.467,18.467,0,0,1,32.2,38.243c-.3-.568-.626-1.079-.932-1.554-.748-1.162-1.339-2.081-1.137-3.219.654-3.689.322-6.467-.987-8.259a5.258,5.258,0,0,0-3.031-2,3.523,3.523,0,0,1,2.368-3.052.8.8,0,0,0-.414-1.544,5.118,5.118,0,0,0-3.539,4.4,5.3,5.3,0,0,0-3.388,1.148c-1.742,1.392-2.795,3.979-3.129,7.689-.1,1.116-.823,1.768-1.822,2.669a11.58,11.58,0,0,0-2.453,2.8,9.9,9.9,0,0,0-2.9-.7,3.506,3.506,0,0,1,2.352-2.94.8.8,0,0,0-.414-1.544,4.268,4.268,0,0,0-1.2.543A4.726,4.726,0,0,0,5.72,29.053a.8.8,0,0,0-.566.566,4.744,4.744,0,0,0,1.224,4.565A4.692,4.692,0,0,0,9.445,35.56a5.99,5.99,0,0,0-.22,1.056,9.98,9.98,0,0,0,.754,19.931,9.885,9.885,0,0,0,5.661-1.761c.263.115.526.226.791.331a19.665,19.665,0,0,0,7.226,1.43,16.1,16.1,0,0,0,10.315-3.631A20.268,20.268,0,0,0,40.443,42.29,20.752,20.752,0,0,0,40.678,34.658ZM17.255,35.709c1.075-.97,2.187-1.972,2.344-3.713.293-3.259,1.146-5.473,2.535-6.583a3.85,3.85,0,0,1,3.029-.754,3.8,3.8,0,0,1,2.686,1.5c1.042,1.426,1.279,3.793.7,7.036-.312,1.755.542,3.081,1.367,4.363a12.247,12.247,0,0,1,1.262,2.322A19.174,19.174,0,0,1,19.9,47.643a9.978,9.978,0,0,0-4.738-9.6A10.382,10.382,0,0,1,17.255,35.709ZM7.508,33.054a3.141,3.141,0,0,1-.9-2.544,3.168,3.168,0,0,1,.333-.018,3.107,3.107,0,0,1,2.211.916,3.14,3.14,0,0,1,.9,2.544,3.166,3.166,0,0,1-.333.018h0A3.106,3.106,0,0,1,7.508,33.054ZM9.979,54.948a8.373,8.373,0,1,1,8.269-7.008c-.514.066-1.552.126-1.552.126l-1.642-.025a32.817,32.817,0,0,1-3.419-.565.8.8,0,0,0-.67.12,4.585,4.585,0,0,0-1.851,2.355.8.8,0,0,0,.241.876,27.014,27.014,0,0,0,4.583,3.128A8.306,8.306,0,0,1,9.979,54.948ZM38.9,41.877c-2.193,8.185-7.891,13.071-15.241,13.071a20.857,20.857,0,0,1-12.813-4.966,2.846,2.846,0,0,1,.754-.865,18.977,18.977,0,0,0,4.543.558A19.3,19.3,0,0,0,28.1,45.448a21.3,21.3,0,0,0,4.6-4.979c.015-.02.029-.041.042-.062a20.394,20.394,0,0,0,2.331-4.78c1.12-.564,1.206-1.706,1.289-2.813.019-.253.038-.513.068-.787a2.165,2.165,0,0,1,.777-.339,6.265,6.265,0,0,0,1.936,3.526A19.336,19.336,0,0,1,38.9,41.877Z" transform="translate(0 -18.592)" fill="#dd052b" stroke="#dd052b" stroke-width="1"/>
      </g>
    </g>
  </g>
</svg>