<svg xmlns="http://www.w3.org/2000/svg" width="33.104" height="44.145" viewBox="0 0 33.104 44.145">
  <g id="Group_212" data-name="Group 212" transform="translate(-1115.131 -3088.059)">
    <path id="Path_179" data-name="Path 179" d="M165.363,95.72a1.51,1.51,0,0,0,1.14,0c.36-.147,8.817-3.663,8.817-9.859a5.983,5.983,0,0,0-9.387-4.826,5.983,5.983,0,0,0-9.387,4.826c0,6.2,8.457,9.712,8.817,9.859Zm-.579-11.687a1.511,1.511,0,0,0,2.3,0,2.965,2.965,0,0,1,5.218,1.829c0,3.156-4.172,5.775-6.366,6.809-2.2-1.035-6.367-3.653-6.367-6.809A2.965,2.965,0,0,1,164.784,84.033Z" transform="translate(965.751 3026.818)" fill="#dd052b" stroke="#fff" stroke-width="0.2"/>
    <g id="greeting-card" transform="translate(1115.231 3088.167)">
      <path id="Path_184" data-name="Path 184" d="M95.906,8.276H91.679V1.291A1.3,1.3,0,0,0,89.985.07L65.169,8.342a1.287,1.287,0,0,0-.88,1.221V42.65a1.287,1.287,0,0,0,1.287,1.287h30.33a1.287,1.287,0,0,0,1.287-1.287V9.563a1.287,1.287,0,0,0-1.287-1.287Zm-6.8-5.2v5.2h-15.6Zm5.515,38.286H66.863V10.85H94.619Z" transform="translate(-64.289 0)" fill="#dd052b" stroke="#fff" stroke-width="0.2"/>
    </g>
  </g>
</svg>