<svg xmlns="http://www.w3.org/2000/svg" width="35.46" height="40.56" viewBox="0 0 35.46 40.56">
  <g id="exhibition" transform="translate(0.2 0.2)">
    <path id="Path_203" data-name="Path 203" d="M1.027,262.6a1.027,1.027,0,0,0,0,2.054H5.136a1.027,1.027,0,0,0,0-2.054H4.109V251.024a9.223,9.223,0,0,0,6.231,2.3,9.17,9.17,0,0,0,6.163-2.278V262.6H15.476a1.027,1.027,0,0,0,0,2.054h4.109a1.027,1.027,0,0,0,0-2.054H18.557V251.047a9.53,9.53,0,0,0,12.394-.024V262.6H29.924a1.027,1.027,0,0,0,0,2.054h4.109a1.027,1.027,0,0,0,0-2.054H33.005V246.986a3.081,3.081,0,1,0-2.054,0v.924a7.278,7.278,0,0,1-6.231,3.361,7.116,7.116,0,0,1-6.163-3.35v-.935a3.081,3.081,0,1,0-2.054,0v.935a7.116,7.116,0,0,1-6.163,3.35,7.279,7.279,0,0,1-6.231-3.361v-.924a3.081,3.081,0,1,0-2.054,0V262.6Zm30.951-19.549a1.027,1.027,0,1,1-1.027,1.027A1.028,1.028,0,0,1,31.978,243.054Zm-14.448,0a1.027,1.027,0,1,1-1.027,1.027A1.028,1.028,0,0,1,17.53,243.054Zm-14.448,0a1.027,1.027,0,1,1-1.027,1.027A1.028,1.028,0,0,1,3.081,243.054Z" transform="translate(0 -224.497)" fill="#dd052b" stroke="#dd052b" stroke-width="0.4"/>
    <path id="Path_205" data-name="Path 205" d="M272.027,14.448h19.549a1.027,1.027,0,0,0,1.027-1.027V1.027A1.027,1.027,0,0,0,291.576,0H272.027A1.027,1.027,0,0,0,271,1.027V13.421A1.027,1.027,0,0,0,272.027,14.448Zm1.027-12.394h17.494v10.34H273.054Z" transform="translate(-264.272)" fill="#dd052b" stroke="#dd052b" stroke-width="0.4"/>
  </g>
</svg>