<svg xmlns="http://www.w3.org/2000/svg" x="0px" y="0px" width="47.664px" height="47.664px" viewBox="0 0 47.664 47.664">
<circle display="none" fill="none" cx="23.832" cy="23.833" r="23.833"/>
<g>
	<path fill="#DD052B" d="M27.875,19.812c-1.056-1.344-2.039-1.584-2.904-1.8v3.841c0.36,0.048,2.4,0.359,3.744,1.368
		c1.656,1.225,1.729,2.904,1.729,3.648c0,3.289-2.615,4.993-5.473,5.257v2.736h-2.207v-2.736c-2.592-0.48-3.721-0.96-5.545-3.192
		l2.424-1.848c0.36,0.527,1.68,2.016,3.121,2.16v-4.585c-2.376-0.264-3.696-1.009-4.393-1.993c-0.264-0.408-0.696-1.271-0.696-2.328
		c0-0.504,0.096-1.848,1.032-2.977c0.624-0.743,1.824-1.728,4.057-1.968v-2.592h2.207v2.592c2.881,0.264,4.465,1.8,5.186,2.616
		L27.875,19.812z M22.764,18.012c-0.552,0.096-1.944,0.504-1.944,1.849c0,0.768,0.384,1.319,1.944,1.607V18.012z M24.971,29.294
		c0.672-0.12,2.305-0.648,2.305-2.257c0-1.584-1.848-1.943-2.305-2.04V29.294z"/>
	<circle fill="none" stroke="#DD052B" stroke-width="3" cx="23.832" cy="23.833" r="22.25"/>
</g>
</svg>
