<svg width="865" height="312" xmlns="http://www.w3.org/2000/svg">
  <g>
   <path d="m53.5095,6.0015c-26.814,0 -48.508,21.511 -48.508,48.068l0,203.87c0,26.536 21.694,48.059 48.508,48.059l205.81,0c26.793,0 48.496,-21.522 48.496,-48.059l0,-2.086c-0.902,-0.372 -78.698,-32.52 -118.24,-51.357c-26.677,32.524 -61.086,52.256 -96.812,52.256c-60.412,0 -80.927,-52.38 -52.322,-86.86c6.237,-7.517 16.847,-14.698 33.314,-18.718c25.76,-6.27 66.756,3.915 105.18,16.477c6.912,-12.614 12.726,-26.506 17.057,-41.297l-118.41,0l0,-11.88l61.057,0l0,-21.305l-73.951,0l0,-11.888l73.951,0l0,-30.39s0,-5.119 5.236,-5.119l29.848,0l0,35.508l73.107,0l0,11.891l-73.107,0l0,21.303l59.674,0c-5.71,23.176 -14.38,44.509 -25.264,63.236c18.111,6.49 34.368,12.646 46.484,16.666c40.413,13.397 51.74,15.034 53.201,15.205l0,-155.511c0,-26.557 -21.704,-48.068 -48.496,-48.068l-205.81,0l-0.003,-0.001zm33.207,162.54a91.24,91.24 0 0 0 -7.822,0.426c-7.565,0.753 -21.768,4.06 -29.533,10.865c-23.274,20.109 -9.344,56.87 37.762,56.87c27.383,0 54.743,-17.343 76.236,-45.114c-27.71,-13.395 -51.576,-23.335 -76.643,-23.047z" fill="#00a1e9"/>
   <path d="m834.4815,214.5515l-13.517,29.164l-13.718,-29.164l-13.402,0l20.871,40.322l0,28.127l12.295,0l0,-28.127l0.074,-0.157l20.787,-40.165l-13.39,0zm-98.969,17.644l9.535,28.389l-19.407,0l9.872,-28.389zm12.464,37.015l4.594,13.786l12.885,0l-25.37,-68.45l-9.851,0l-25.286,68.45l12.896,0l4.793,-13.786l25.339,0zm-96.164,-21.937l-13.686,0l0,-23.417l13.686,0c6.88,0 10.989,5.977 10.989,11.755c0,5.653 -3.846,11.661 -10.989,11.661m0.695,-32.723l-26.772,0l0,68.45l12.39,0l0,-26.316l14.381,0c13.36,0 22.694,-8.667 22.694,-21.072s-9.334,-21.061 -22.694,-21.061m-89.406,68.45l12.401,0l0,-68.45l-12.4,0l-0.001,68.45zm-87.163,-68.449l0,68.45l41.711,0l0,-9.327l-29.32,0l0,-59.123l-12.391,0zm-70.587,17.644l9.525,28.389l-19.396,0l9.871,-28.389zm12.464,37.015l4.594,13.786l12.875,0l-25.37,-68.45l-9.84,0l-25.287,68.45l12.885,0l4.794,-13.786l25.349,0zm87.23,-188.47l-53.153,0l0,-18.926l61.635,0l0,-11.787l-61.635,0l0,-23.982l-27.477,0c-3.013,0 -5.447,2.512 -5.447,5.6l0,18.382l-61.203,0l0,11.787l61.203,0l0,18.927l-51.656,0l0,11.776l102.89,0s-5.7,22.12 -33.925,45.891c-25.286,-19.02 -33.736,-34.167 -33.736,-34.167l-27.604,0c11.168,19.23 27.035,34.628 44.124,46.844c-15.698,10.133 -36.054,19.9 -62.372,27.72l0,14.11s40.605,-7.61 79.851,-30.587c39.31,22.8 78.787,30.587 78.787,30.587l0,-13.357c-25.265,-9.138 -45.283,-19.188 -61.002,-28.88c22.768,-16.76 42.723,-39.507 50.72,-69.937m172.66,-52.334l-27.668,0l0,28.724l-68.198,0l0,11.567l68.198,0l0,103.27c-0.242,2.366 -2.117,4.208 -4.467,4.334l-14.065,0l0,11.965l35.864,0c5.679,-0.23 10.21,-4.91 10.336,-10.709l0,-108.861l11.231,0l0,-11.567l-11.23,0l-0.001,-28.723zm-58.349,59.777c-1.011,-2.051 -3.076,-3.465 -5.478,-3.486l-23.052,0l17.964,56.192l27.267,0l-16.701,-52.706zm-68.092,-61.137l-31.735,74.584l24.348,0l0,88.747l26.625,0l0,-117.721l-9.65,0l20.05,-45.609l-29.638,-0.001zm308.73,159.26l-9.724,-32.639c-0.653,-2.083 -2.55,-3.59 -4.805,-3.59l-25.78,0l7.48,25.07l-30.313,0l0,-48.57l59.517,0l0,-11.557l-59.517,0l0,-22.863l59.517,0l0,-11.557l-148.52,0l0,11.557l59.506,0l0,22.862l-59.506,0l0,11.557l59.506,0l0,48.57l-59.506,0l0,11.558l152.15,0l-0.127,-0.398l0.122,0zm-121.2,-133.28l86.678,0l0,17.052l30.965,0l0,-20.204c-0.01,-0.042 -0.01,-0.063 -0.01,-0.115c0,-4.543 -3.582,-8.217 -8.018,-8.29l-50.108,0l0,-15.901l-32.399,0l0,15.9l-58.063,0l0,28.61l30.954,0l0.001,-17.052z" fill="#3f3b3a"/>
  </g>
</svg>