<svg width="518" height="216" xmlns="http://www.w3.org/2000/svg">
 <g id="Layer_1">
  <title>Layer 1</title>
  <g>
   <path d="m96.57066,30c-6,7.1 -15.6,12.7 -25.2,11.9c-1.2,-9.6 3.5,-19.8 9,-26.1c6,-7.3 16.5,-12.5 25,-12.9c1,10 -2.9,19.8 -8.8,27.1m8.7,13.8c-13.9,-0.8 -25.8,7.9 -32.4,7.9c-6.7,0 -16.8,-7.5 -27.8,-7.3c-14.3,0.2 -27.6,8.3 -34.9,21.2c-15,25.8 -3.9,64 10.6,85c7.1,10.4 15.6,21.8 26.8,21.4c10.6,-0.4 14.8,-6.9 27.6,-6.9c12.9,0 16.6,6.9 27.8,6.7c11.6,-0.2 18.9,-10.4 26,-20.8c8.1,-11.8 11.4,-23.3 11.6,-23.9c-0.2,-0.2 -22.4,-8.7 -22.6,-34.3c-0.2,-21.4 17.5,-31.6 18.3,-32.2c-10,-14.8 -25.6,-16.4 -31,-16.8m80.3,-29l0,155.9l24.2,0l0,-53.3l33.5,0c30.6,0 52.1,-21 52.1,-51.4s-21.1,-51.2 -51.3,-51.2l-58.5,0zm24.2,20.4l27.9,0c21,0 33,11.2 33,30.9s-12,31 -33.1,31l-27.8,0l0,-61.9zm129.8,136.7c15.2,0 29.3,-7.7 35.7,-19.9l0.5,0l0,18.7l22.4,0l0,-77.6c0,-22.5 -18,-37 -45.7,-37c-25.7,0 -44.7,14.7 -45.4,34.9l21.8,0c1.8,-9.6 10.7,-15.9 22.9,-15.9c14.8,0 23.1,6.9 23.1,19.6l0,8.6l-30.2,1.8c-28.1,1.7 -43.3,13.2 -43.3,33.2c0,20.2 15.7,33.6 38.2,33.6zm6.5,-18.5c-12.9,0 -21.1,-6.2 -21.1,-15.7c0,-9.8 7.9,-15.5 23,-16.4l26.9,-1.7l0,8.8c0,14.6 -12.4,25 -28.8,25zm82,59.7c23.6,0 34.7,-9 44.4,-36.3l42.5,-119.2l-24.6,0l-28.5,92.1l-0.5,0l-28.5,-92.1l-25.3,0l41,113.5l-2.2,6.9c-3.7,11.7 -9.7,16.2 -20.4,16.2c-1.9,0 -5.6,-0.2 -7.1,-0.4l0,18.7c1.4,0.4 7.4,0.6 9.2,0.6z"/>
  </g>
 </g>

</svg>