<svg xmlns="http://www.w3.org/2000/svg" width="80" height="46" viewBox="0 0 80 46">
  <g id="Group_6911" data-name="Group 6911" transform="translate(-6393 -12304)">
    <rect id="Rectangle_1293" data-name="Rectangle 1293" width="80" height="46" rx="5" transform="translate(6393 12304)" fill="#00b041"/>
    <g id="OIPjWg_1_" transform="translate(6405.903 12305.45)">
      <g id="Group_6910" data-name="Group 6910" transform="translate(6.097 3.55)">
        <path id="Path_6053" data-name="Path 6053" d="M229.261,41.5c-.02.156-.04.312-.06.466a4.957,4.957,0,0,1-1.387,2.872,5.038,5.038,0,0,1-2.865,1.52,4.983,4.983,0,0,1-4.941-2.089,7.587,7.587,0,0,1-.4-.825.161.161,0,0,1,.034-.194c.194-.226.382-.459.569-.689a1.073,1.073,0,0,0,.059-.106c.07.2.113.346.177.489a3.919,3.919,0,0,0,3.077,2.411,4.075,4.075,0,0,0,4.588-3.062,5.063,5.063,0,0,0,.122-.962c.016-.419.006-.839-.02-1.258a3.805,3.805,0,0,0-.825-2.137,4.015,4.015,0,0,0-2.8-1.611,3.948,3.948,0,0,0-3.052.945,19.415,19.415,0,0,0-2.492,2.558c-.357.425-.7.864-1.048,1.3-.021.026-.046.05-.083.092,0-.053-.007-.083-.007-.113,0-.425,0-.849,0-1.274a.305.305,0,0,1,.053-.173,22.692,22.692,0,0,1,1.963-2.275,10.419,10.419,0,0,1,1.729-1.39,4.578,4.578,0,0,1,1.886-.662A5.116,5.116,0,0,1,229.1,39.19c.064.27.086.55.129.826.01.061.021.122.033.183Z" transform="translate(-187.625 -30.747)" fill="#fff" fill-rule="evenodd"/>
        <path id="Path_6054" data-name="Path 6054" d="M197.521,162.39c.077.06.133.1.187.147a5.4,5.4,0,0,0,2.754,1.2,3.875,3.875,0,0,0,2.023-.2,1.823,1.823,0,0,0,1.16-1.643c.034-.4.021-.812.029-1.218a1.032,1.032,0,0,0-.013-.114c-.027.014-.046.017-.056.029a2.964,2.964,0,0,1-1.721.925,4.544,4.544,0,0,1-3.1-.42,3.85,3.85,0,0,1-1.939-2.584,5.454,5.454,0,0,1-.164-1.351v-6.018c0-.174,0-.176.18-.176.691,0,1.383,0,2.073,0,.139,0,.172.04.172.176,0,2.037-.014,4.075,0,6.112a2.058,2.058,0,0,0,1.744,2.089,2.311,2.311,0,0,0,1.894-.429,1.907,1.907,0,0,0,.706-1.312,4.985,4.985,0,0,0,.03-.621q0-2.914,0-5.828c0-.183,0-.183.184-.183.673,0,1.347,0,2.019,0,.1,0,.139.029.139.139,0,3.6.007,7.193-.01,10.789a3.885,3.885,0,0,1-.969,2.649,4.11,4.11,0,0,1-2.085,1.217,6.934,6.934,0,0,1-1.455.2,5.3,5.3,0,0,1-3.661-1.174.328.328,0,0,1-.139-.286c.006-.663,0-1.328,0-1.992C197.512,162.485,197.516,162.453,197.521,162.39Z" transform="translate(-169.432 -129.893)" fill="#fff" fill-rule="evenodd"/>
        <path id="Path_6055" data-name="Path 6055" d="M45.745,148.19h-.162c-.665,0-1.328,0-1.992,0-.143,0-.172-.043-.172-.176q0-4.248,0-8.5v-4.093c0-.179,0-.179.177-.179,1.648,0,3.3-.027,4.947.013a4.383,4.383,0,0,1,3.145,1.268A3.751,3.751,0,0,1,52.7,138.5a5.374,5.374,0,0,1-.159,2.829,3.9,3.9,0,0,1-2.891,2.576,5.6,5.6,0,0,1-1.445.173c-.759,0-1.518,0-2.278,0-.177,0-.179,0-.179.18v3.754C45.745,148.069,45.745,148.122,45.745,148.19Zm1.324-6.274c.32,0,.642.01.962,0a5.035,5.035,0,0,0,.818-.081,1.889,1.889,0,0,0,1.508-1.285,2.865,2.865,0,0,0,.029-1.756,1.742,1.742,0,0,0-1.087-1.18,2.957,2.957,0,0,0-1.069-.2c-.785-.01-1.571,0-2.356,0-.1,0-.13.037-.13.136q0,2.112,0,4.226c0,.114.039.147.149.146C46.284,141.914,46.677,141.917,47.069,141.917Z" transform="translate(-38.084 -116.412)" fill="#fff" fill-rule="evenodd"/>
        <path id="Path_6056" data-name="Path 6056" d="M123.991,159.731a3.473,3.473,0,0,1-1.9,1.007,5.455,5.455,0,0,1-1.628.044,4.887,4.887,0,0,1-1.876-.566,4.253,4.253,0,0,1-2.079-2.7,5.966,5.966,0,0,1-.214-1.588c0-.519-.014-1.041.03-1.557a4.442,4.442,0,0,1,3.513-4.2,6.05,6.05,0,0,1,3.44.142,4.23,4.23,0,0,1,2.835,3.158,5.634,5.634,0,0,1,.167,1.393q0,2.824,0,5.65c0,.192,0,.192-.192.192-.646,0-1.292,0-1.937,0-.119,0-.167-.026-.162-.157C124,160.278,123.991,160.005,123.991,159.731Zm.026-4.279a10.483,10.483,0,0,0-.087-1.144,2.351,2.351,0,0,0-1.556-1.892,3.181,3.181,0,0,0-1.691-.122,2.5,2.5,0,0,0-2.047,2.09,7.056,7.056,0,0,0-.024,1.8,2.543,2.543,0,0,0,1.523,2.159,3.114,3.114,0,0,0,1.786.209,2.285,2.285,0,0,0,1.963-1.7A6.285,6.285,0,0,0,124.016,155.452Z" transform="translate(-100.536 -129.054)" fill="#fff" fill-rule="evenodd"/>
        <path id="Path_6057" data-name="Path 6057" d="M16.705,27.766H12.455c0-.059-.009-.106-.009-.153,0-.226,0-.452,0-.678,0-.186,0-.186.193-.186h3.443c.5,0,.994,0,1.491,0,.119,0,.154.033.154.152,0,1.767,0,3.533-.006,5.3a.366.366,0,0,1-.08.217,5.2,5.2,0,0,1-1.883,1.338,7.034,7.034,0,0,1-2.122.553,6.715,6.715,0,0,1-3.624-.512A6.378,6.378,0,0,1,6.27,29.12a6.675,6.675,0,0,1,.226-3.81,6.781,6.781,0,0,1,3.27-3.649,7.06,7.06,0,0,1,2.594-.8,10.639,10.639,0,0,1,2.013,0,7.042,7.042,0,0,1,1.924.4.218.218,0,0,1,.176.25c-.014.309,0,.62,0,.951-.126-.064-.232-.12-.339-.172a4.956,4.956,0,0,0-1.78-.469c-.449-.036-.9-.06-1.35-.054a5.942,5.942,0,0,0-3.61,1.271,5.662,5.662,0,0,0-2.066,2.988,5.953,5.953,0,0,0-.184,1.9,5.587,5.587,0,0,0,.575,2.33,5.366,5.366,0,0,0,3.846,2.964,6.6,6.6,0,0,0,2.14.054,5.478,5.478,0,0,0,2.366-.782,4.881,4.881,0,0,0,.556-.429.313.313,0,0,0,.093-.209c.006-1.32,0-2.638,0-3.957A1.418,1.418,0,0,0,16.705,27.766Z" transform="translate(-6.097 -18.348)" fill="#fff" fill-rule="evenodd"/>
        <path id="Path_6058" data-name="Path 6058" d="M148.1,45.07c0,.329,0,.639,0,.949,0,.036-.06.09-.1.1a6.105,6.105,0,0,1-.952.239,4.84,4.84,0,0,1-3.576-1.019,4.919,4.919,0,0,1-1.973-3.364,12.366,12.366,0,0,1-.04-1.8,4.836,4.836,0,0,1,1.248-3.154,5.05,5.05,0,0,1,7.176-.509,5.049,5.049,0,0,1,1.716,3.1,4.422,4.422,0,0,1,.057.713q.006,2.94,0,5.882v.182h-1.014v-.193c0-1.96.013-3.922,0-5.882a4.071,4.071,0,0,0-3.333-3.979,4.149,4.149,0,0,0-4.772,3.258,3.508,3.508,0,0,0-.074.658,8.127,8.127,0,0,0,.063,1.729,4.09,4.09,0,0,0,2.594,3.131,3.829,3.829,0,0,0,2.839.014C147.995,45.106,148.04,45.092,148.1,45.07Z" transform="translate(-122.089 -30.719)" fill="#fff" fill-rule="evenodd"/>
        <path id="Path_6059" data-name="Path 6059" d="M26.824,38.948v.144c0,.939,0,1.879,0,2.818a.26.26,0,0,1-.11.229,3.625,3.625,0,0,1-1.487.651,6.484,6.484,0,0,1-1.84.162,4.7,4.7,0,0,1-4.028-2.592,5.371,5.371,0,0,1-.127-4.458,5.112,5.112,0,0,1,2.941-2.628,5.874,5.874,0,0,1,2.462-.312,6.832,6.832,0,0,1,2.085.416c.189.074.373.16.555.25a.171.171,0,0,1,.084.117c.007.36,0,.722,0,1.111-.056-.037-.094-.061-.132-.089a3.726,3.726,0,0,0-1.883-.723,9.234,9.234,0,0,0-1.39-.077,4.225,4.225,0,0,0-3.717,2.206,3.336,3.336,0,0,0-.416,1.62,4.229,4.229,0,0,0,.34,1.926A3.628,3.628,0,0,0,23.01,41.89a5.46,5.46,0,0,0,2.751-.309.164.164,0,0,0,.123-.18c0-.425-.006-.849,0-1.274,0-.133-.034-.18-.176-.179-.736.007-1.473,0-2.209.006-.122,0-.164-.029-.16-.157.01-.279,0-.559,0-.849Z" transform="translate(-16.994 -28.742)" fill="#fff" fill-rule="evenodd"/>
        <path id="Path_6060" data-name="Path 6060" d="M221.688,51.5c.059.266.1.492.159.711a3.509,3.509,0,0,0,.918,1.57,2.1,2.1,0,0,0,3.008-.081,2.147,2.147,0,0,0,.643-1.5,12.045,12.045,0,0,0-.01-1.325,2.232,2.232,0,0,0-1.727-1.944,2.288,2.288,0,0,0-2.139.592,23.9,23.9,0,0,0-2.225,2.4c-.8.949-1.574,1.92-2.359,2.882a.061.061,0,0,1-.046.029c0-.036-.009-.071-.009-.107,0-.437,0-.876,0-1.314a.4.4,0,0,1,.074-.22,36.134,36.134,0,0,1,2.329-2.765c.446-.485.894-.971,1.365-1.43a3.887,3.887,0,0,1,1.893-1.079,2.992,2.992,0,0,1,2.426.526,3.307,3.307,0,0,1,1.4,2.156,2.5,2.5,0,0,1,.041.485,14.183,14.183,0,0,1-.034,1.46,3.265,3.265,0,0,1-2.356,2.724,3.179,3.179,0,0,1-3.587-1.414,3.872,3.872,0,0,1-.529-1.237.284.284,0,0,1,.046-.206c.213-.275.437-.54.656-.811C221.647,51.572,221.66,51.543,221.688,51.5Z" transform="translate(-187.619 -41.509)" fill="#fff" fill-rule="evenodd"/>
        <path id="Path_6061" data-name="Path 6061" d="M158.892,53.889c0,.349,0,.673,0,1a.228.228,0,0,1-.1.14,2.15,2.15,0,0,1-.895.326,3.314,3.314,0,0,1-3.406-1.608,3.152,3.152,0,0,1-.455-1.647c0-.289,0-.578,0-.868a3.231,3.231,0,0,1,1.281-2.655,3.272,3.272,0,0,1,5.264,1.946,3.788,3.788,0,0,1,.06.685q.006,2.906,0,5.813c0,.182,0,.182-.186.183-.226,0-.452-.006-.678,0-.117,0-.144-.04-.143-.149,0-.519,0-1.039,0-1.558V51.257a2.334,2.334,0,0,0-.4-1.393,2.3,2.3,0,0,0-4.113.719,2.71,2.71,0,0,0-.07.548c-.011.32,0,.641,0,.962A2.255,2.255,0,0,0,157,54.365a2.545,2.545,0,0,0,1.76-.383C158.793,53.955,158.829,53.929,158.892,53.889Z" transform="translate(-132.879 -41.521)" fill="#fff" fill-rule="evenodd"/>
        <path id="Path_6062" data-name="Path 6062" d="M103.422,35.935l-.7.763a6.238,6.238,0,0,0-.783-.29,4.115,4.115,0,0,0-4.193,1.175,3.6,3.6,0,0,0-.914,1.972,7.347,7.347,0,0,0-.073,1.064c-.007,1.86,0,3.722,0,5.583,0,.19,0,.192-.19.192-.23,0-.46,0-.691,0-.1,0-.133-.033-.123-.124a.526.526,0,0,0,0-.067q0-2.906,0-5.813a5.162,5.162,0,0,1,.922-3.07A4.756,4.756,0,0,1,99.8,35.352a5.266,5.266,0,0,1,2.962.25C102.981,35.69,103.189,35.817,103.422,35.935Z" transform="translate(-82.931 -30.716)" fill="#fff" fill-rule="evenodd"/>
        <path id="Path_6063" data-name="Path 6063" d="M113.022,48.137l-.439.875a5.652,5.652,0,0,0-.6-.139,2.228,2.228,0,0,0-2.674,2.212q0,2.949,0,5.895v.186H108.3c0-.047-.007-.094-.007-.143,0-2-.017-3.993.006-5.99a3.174,3.174,0,0,1,2.639-3.138,3.707,3.707,0,0,1,1.79.112C112.829,48.041,112.924,48.094,113.022,48.137Z" transform="translate(-93.677 -41.502)" fill="#fff" fill-rule="evenodd"/>
        <path id="Path_6064" data-name="Path 6064" d="M225.38,3.6h1c0,.054.007.1.007.15q0,2.588,0,5.177a.273.273,0,0,1-.09.21c-.272.276-.536.562-.8.844l-.113.126Z" transform="translate(-194.029 -3.593)" fill="#fff" fill-rule="evenodd"/>
        <path id="Path_6065" data-name="Path 6065" d="M237.95,8.551V3.732c0-.182,0-.182.187-.182h.623c.194,0,.194,0,.194.2v.9c0,1.025,0,2.052,0,3.077a.231.231,0,0,1-.126.226c-.259.163-.508.345-.761.518C238.04,8.488,238.009,8.511,237.95,8.551Z" transform="translate(-204.802 -3.55)" fill="#fff" fill-rule="evenodd"/>
      </g>
    </g>
  </g>
</svg>
